<?xml version="1.0" encoding="utf-8"?>
<!-- Generator: Adobe Illustrator 22.0.0, SVG Export Plug-In . SVG Version: 6.00 Build 0)  -->
<svg version="1.1" xmlns="http://www.w3.org/2000/svg" xmlns:xlink="http://www.w3.org/1999/xlink" x="0px" y="0px"
	 viewBox="0 0 50 50" style="enable-background:new 0 0 50 50;" xml:space="preserve">
<style type="text/css">
	.st0{fill:#15A500;}
	.st1{fill:#FFFFFF;}
	.st2{display:none;}
	.st3{display:inline;fill:#FFCE00;}
	.st4{display:inline;fill:#FFFFFF;}
	.st5{display:inline;fill:#15A500;}
</style>
<g id="Layer_1_copy">
	<path class="st0" d="M42.2,19.8c0,7.5-10.4,22.7-15.3,27.3c-1.4,1.3-3.6,1.3-5,0C17,42.5,6.6,27.3,6.6,19.8C6.6,10,14.6,2,24.4,2
		S42.2,10,42.2,19.8z"/>
	<circle class="st1" cx="24.4" cy="19.6" r="7.4"/>
</g>
<g id="Layer_1_copy_3" class="st2">
	<path class="st3" d="M42.5,19.8c0,7.5-10.4,22.7-15.3,27.3c-1.4,1.3-3.6,1.3-5,0C17.3,42.5,6.9,27.3,6.9,19.8C6.9,10,14.9,2,24.7,2
		S42.5,10,42.5,19.8z"/>
	<polygon class="st4" points="24.7,9.6 27.8,15.8 34.7,16.8 29.7,21.7 30.9,28.6 24.7,25.3 18.5,28.6 19.7,21.7 14.7,16.8 
		21.6,15.8 	"/>
</g>
<g id="Layer_1" class="st2">
	<path class="st5" d="M24.4,2C14.6,2,6.6,10,6.6,19.8c0,7.5,10.4,22.7,15.3,27.3c1.4,1.3,3.6,1.3,5,0c4.9-4.6,15.3-19.8,15.3-27.3
		C42.2,10,34.3,2,24.4,2z M24.4,27c-4.1,0-7.4-3.3-7.4-7.4s3.3-7.4,7.4-7.4s7.4,3.3,7.4,7.4S28.5,27,24.4,27z"/>
</g>
<g id="Layer_1_copy_2" class="st2">
	<path class="st3" d="M24.7,2C14.9,2,6.9,10,6.9,19.8c0,7.5,10.4,22.7,15.3,27.3c1.4,1.3,3.6,1.3,5,0c4.9-4.6,15.3-19.8,15.3-27.3
		C42.5,10,34.5,2,24.7,2z M30.9,28.6l-6.2-3.3l-6.2,3.3l1.2-6.9l-5-4.9l6.9-1l3.1-6.3l3.1,6.3l6.9,1l-5,4.9L30.9,28.6z"/>
</g>
</svg>
