<svg width="41" height="41" viewBox="0 0 41 41" fill="none" xmlns="http://www.w3.org/2000/svg">
<path d="M17.0833 35.875H6.83331V28.3344L13.2959 21.8718C12.9765 20.869 12.8125 19.8355 12.8125 18.7917C12.8125 13.1388 17.4096 8.54167 23.0625 8.54167C28.7154 8.54167 33.3125 13.1388 33.3125 18.7917C33.3125 24.4445 28.7154 29.0417 23.0625 29.0417H20.5V32.4583H17.0833V35.875ZM10.25 32.4583H13.6666V29.0417H17.0833V25.625H23.0625C26.8311 25.625 29.8958 22.5603 29.8958 18.7917C29.8958 15.0231 26.8311 11.9583 23.0625 11.9583C19.2939 11.9583 16.2291 15.0231 16.2291 18.7917C16.2291 19.7466 16.4359 20.6862 16.8424 21.5916L17.3293 22.6696L10.25 29.7489V32.4583ZM23.0625 17.0799C24.0038 17.0799 24.7708 17.847 24.7708 18.7917C24.7708 19.7347 24.0038 20.5 23.0625 20.5C22.1212 20.5 21.3541 19.7347 21.3541 18.7917C21.3541 17.847 22.1212 17.0799 23.0625 17.0799ZM23.0625 15.3716C21.1765 15.3716 19.6458 16.9023 19.6458 18.7917C19.6458 20.6777 21.1765 22.2083 23.0625 22.2083C24.9502 22.2083 26.4791 20.6777 26.4791 18.7917C26.4791 16.904 24.9502 15.3716 23.0625 15.3716V15.3716Z" fill="black"/>
</svg>
